<svg width="154" height="990" viewBox="0 0 154 990" fill="none" xmlns="http://www.w3.org/2000/svg">
<path id="portfolioLetters" d="M78.1142 51.7309C79.6633 51.7309 81.1469 51.5127 82.5651 51.0764C84.0051 50.6182 85.2596 49.8655 86.3287 48.8182C87.4196 47.7709 88.2814 46.3636 88.9142 44.5964C89.5687 42.8073 89.896 40.5927 89.896 37.9527C89.896 34.0036 88.9251 31.2 86.9833 29.5418C85.0414 27.8618 82.096 27.0218 78.1469 27.0218C76.6414 27.0218 75.3869 27.0873 74.3833 27.2182C73.4014 27.3273 72.5178 27.3927 71.7323 27.4145V51.5018C72.8014 51.5673 73.8051 51.6218 74.7433 51.6655C75.7033 51.7091 76.8269 51.7309 78.1142 51.7309ZM81.3214 71.6618V75H57.496V71.6618L62.7978 70.7127C63.3214 70.6255 63.7251 70.4073 64.0087 70.0582C64.2923 69.7091 64.4342 69.2836 64.4342 68.7818V30.2291C64.4342 29.8145 64.3033 29.4218 64.0414 29.0509C63.7796 28.68 63.4305 28.4509 62.9942 28.3636L57.496 27.2836V23.88H68.1323C69.136 23.88 70.0414 23.8582 70.8487 23.8145C71.6778 23.7709 72.5069 23.7164 73.336 23.6509C74.1869 23.5855 75.1142 23.5309 76.1178 23.4873C77.1433 23.4436 78.3651 23.4218 79.7833 23.4218C83.1433 23.4218 85.9687 23.7491 88.2596 24.4036C90.5505 25.0582 92.3723 25.9964 93.7251 27.2182C95.0996 28.44 96.0705 29.9564 96.6378 31.7673C97.2269 33.5782 97.5214 35.6182 97.5214 37.8873C97.5214 40.6364 97.0414 43.1127 96.0814 45.3164C95.1214 47.4982 93.7796 49.3418 92.056 50.8473C90.3542 52.3309 88.3033 53.4655 85.9033 54.2509C83.5251 55.0364 80.9287 55.4291 78.1142 55.4291C77.0451 55.4291 75.976 55.4073 74.9069 55.3636C73.8596 55.2982 72.8014 55.2436 71.7323 55.2V68.7818C71.7323 69.2618 71.8742 69.6764 72.1578 70.0255C72.4633 70.3527 72.856 70.5382 73.336 70.5818L81.3214 71.6618ZM76.1283 185.851C72.6156 185.851 69.5174 185.262 66.8337 184.084C64.1719 182.884 61.9574 181.182 60.1901 178.978C58.4228 176.775 57.0919 174.091 56.1974 170.927C55.3028 167.742 54.8556 164.185 54.8556 160.258C54.8556 155.895 55.401 152.022 56.4919 148.64C57.6046 145.236 59.1537 142.389 61.1392 140.098C63.1465 137.807 65.5683 136.062 68.4046 134.862C71.241 133.662 74.3937 133.062 77.8628 133.062C81.3756 133.062 84.4628 133.662 87.1246 134.862C89.8083 136.04 92.0228 137.731 93.7683 139.935C95.5356 142.116 96.8665 144.789 97.761 147.953C98.6556 151.116 99.1028 154.662 99.1028 158.589C99.1028 162.909 98.5574 166.771 97.4665 170.175C96.3974 173.556 94.8592 176.404 92.8519 178.716C90.8665 181.029 88.4556 182.796 85.6192 184.018C82.7828 185.24 79.6192 185.851 76.1283 185.851ZM77.0446 136.924C72.5937 136.924 69.1246 138.789 66.6374 142.52C64.1501 146.229 62.9065 151.891 62.9065 159.505C62.9065 166.836 64.0628 172.411 66.3756 176.229C68.7101 180.047 72.201 181.956 76.8483 181.956C81.2992 181.956 84.7683 180.08 87.2556 176.327C89.7428 172.575 90.9865 166.88 90.9865 159.244C90.9865 151.935 89.8301 146.393 87.5174 142.618C85.2046 138.822 81.7137 136.924 77.0446 136.924ZM69.2826 247.447V268.785C70.0026 268.829 70.7881 268.862 71.639 268.884C72.4899 268.905 73.3081 268.916 74.0935 268.916C74.879 268.916 75.599 268.916 76.2535 268.916C76.9299 268.916 77.4426 268.916 77.7917 268.916C80.5626 268.895 82.8208 267.956 84.5663 266.102C86.3335 264.247 87.2172 261.345 87.2172 257.396C87.2172 254.102 86.3881 251.549 84.7299 249.738C83.0935 247.927 80.0499 247.022 75.599 247.022C74.3117 247.022 73.079 247.076 71.9008 247.185C70.7444 247.295 69.8717 247.382 69.2826 247.447ZM76.5808 291.662V295H55.079V291.662L60.2499 290.68C60.7954 290.571 61.2208 290.364 61.5263 290.058C61.8535 289.731 62.0172 289.273 62.0172 288.684V250.327C62.0172 249.76 61.8644 249.313 61.559 248.985C61.2535 248.636 60.8281 248.407 60.2826 248.298L55.079 247.284V243.88H65.6499C67.5481 243.88 69.3372 243.804 71.0172 243.651C72.6972 243.476 74.6281 243.389 76.8099 243.389C83.3554 243.389 88.0244 244.513 90.8172 246.76C93.6099 248.985 95.0063 252.378 95.0063 256.938C95.0063 259.469 94.6354 261.607 93.8935 263.353C93.1735 265.076 92.2681 266.495 91.1772 267.607C90.0863 268.698 88.8863 269.538 87.5772 270.127C86.2899 270.716 85.079 271.153 83.9444 271.436C85.1663 272.244 86.2463 273.258 87.1844 274.48C88.1226 275.702 89.0608 277.218 89.999 279.029L94.9081 288.487C95.3226 289.295 95.7263 289.851 96.119 290.156C96.5117 290.462 97.079 290.691 97.8208 290.844L101.454 291.662V295H91.3408C90.3372 295 89.399 294.28 88.5263 292.84C87.6754 291.4 86.6826 289.48 85.5481 287.08L82.2754 280.109C81.5117 278.495 80.7481 277.022 79.9844 275.691C79.2208 274.36 78.4572 273.302 77.6935 272.516C76.0572 272.516 74.4972 272.516 73.0135 272.516C71.5517 272.495 70.3081 272.484 69.2826 272.484V288.716C69.2826 289.305 69.4354 289.764 69.7408 290.091C70.0463 290.396 70.4935 290.593 71.0826 290.68L76.5808 291.662ZM90.1458 405H64.0294V401.662L71.6876 400.484C72.2767 400.396 72.713 400.189 72.9967 399.862C73.3021 399.535 73.4548 399.087 73.4548 398.52V357.545H69.593C68.153 357.545 66.833 357.622 65.633 357.775C64.433 357.905 63.5276 358.08 62.9167 358.298C62.4148 358.473 62.0221 358.713 61.7385 359.018C61.4548 359.302 61.2476 359.705 61.1167 360.229L58.9894 369.491H55.0621C54.8439 366.698 54.7676 364.047 54.833 361.538C54.9203 359.029 55.1167 356.476 55.4221 353.88H98.8839C99.1676 356.476 99.3203 359.04 99.3421 361.571C99.3639 364.102 99.2658 366.742 99.0476 369.491H95.1203L93.0258 360.229C92.9167 359.705 92.7203 359.302 92.4367 359.018C92.153 358.713 91.7712 358.473 91.2912 358.298C90.6367 358.058 89.7421 357.873 88.6076 357.742C87.4948 357.611 86.1858 357.545 84.6803 357.545H80.7203V398.52C80.7203 399.087 80.873 399.535 81.1785 399.862C81.4839 400.189 81.9203 400.396 82.4876 400.484L90.1458 401.662V405ZM89.5602 491.96L73.622 491.535V508.782C73.622 509.262 73.7638 509.676 74.0474 510.025C74.3529 510.353 74.7456 510.538 75.2256 510.582L83.5384 511.662V515H59.3856V511.662L64.6547 510.713C65.2002 510.604 65.6147 510.375 65.8984 510.025C66.182 509.676 66.3238 509.229 66.3238 508.684V470.36C66.3238 469.815 66.1711 469.367 65.8656 469.018C65.582 468.647 65.1675 468.407 64.622 468.298L59.3856 467.284V463.88H95.7129C95.8874 465.909 95.9638 467.96 95.942 470.033C95.942 472.105 95.8438 474.244 95.6474 476.447H92.0147L90.5093 470.262C90.3784 469.76 90.1602 469.367 89.8547 469.084C89.5493 468.778 89.1347 468.527 88.6111 468.331C87.8693 468.047 86.8984 467.851 85.6984 467.742C84.5202 467.611 83.222 467.545 81.8038 467.545H73.622V487.476L89.5602 486.953V491.96ZM76.1283 625.851C72.6156 625.851 69.5174 625.262 66.8337 624.084C64.1719 622.884 61.9574 621.182 60.1901 618.978C58.4228 616.775 57.0919 614.091 56.1974 610.927C55.3028 607.742 54.8556 604.185 54.8556 600.258C54.8556 595.895 55.401 592.022 56.4919 588.64C57.6046 585.236 59.1537 582.389 61.1392 580.098C63.1465 577.807 65.5683 576.062 68.4046 574.862C71.241 573.662 74.3937 573.062 77.8628 573.062C81.3756 573.062 84.4628 573.662 87.1246 574.862C89.8083 576.04 92.0228 577.731 93.7683 579.935C95.5356 582.116 96.8665 584.789 97.761 587.953C98.6556 591.116 99.1028 594.662 99.1028 598.589C99.1028 602.909 98.5574 606.771 97.4665 610.175C96.3974 613.556 94.8592 616.404 92.8519 618.716C90.8665 621.029 88.4556 622.796 85.6192 624.018C82.7828 625.24 79.6192 625.851 76.1283 625.851ZM77.0446 576.924C72.5937 576.924 69.1246 578.789 66.6374 582.52C64.1501 586.229 62.9065 591.891 62.9065 599.505C62.9065 606.836 64.0628 612.411 66.3756 616.229C68.7101 620.047 72.201 621.956 76.8483 621.956C81.2992 621.956 84.7683 620.08 87.2556 616.327C89.7428 612.575 90.9865 606.88 90.9865 599.244C90.9865 591.935 89.8301 586.393 87.5174 582.618C85.2046 578.822 81.7137 576.924 77.0446 576.924ZM90.8282 728.258L93.6427 719.356L97.4064 719.913C97.3627 722.225 97.2318 724.724 97.0137 727.407C96.8173 730.091 96.4791 732.622 95.9991 735H58.1991V731.662L63.4355 730.745C64.0027 730.658 64.4282 730.44 64.7118 730.091C64.9955 729.72 65.1373 729.262 65.1373 728.716V690.327C65.1373 689.76 64.9955 689.302 64.7118 688.953C64.4282 688.604 64.0027 688.375 63.4355 688.265L58.1991 687.284V683.88H80.9446V687.284L74.1373 688.331C73.57 688.418 73.1337 688.636 72.8282 688.985C72.5446 689.335 72.4027 689.793 72.4027 690.36V731.007H81.73C83.2573 731.007 84.6427 730.942 85.8864 730.811C87.1518 730.68 88.1664 730.473 88.93 730.189C89.4318 730.015 89.8355 729.775 90.1409 729.469C90.4464 729.164 90.6755 728.76 90.8282 728.258ZM87.5587 793.88V797.284L82.3551 798.298C81.8096 798.407 81.3842 798.636 81.0787 798.985C80.7951 799.335 80.6532 799.793 80.6532 800.36V838.651C80.6532 839.218 80.7951 839.676 81.0787 840.025C81.3623 840.375 81.7878 840.604 82.3551 840.713L87.5587 841.662V845H66.4169V841.662L71.6532 840.713C72.2205 840.604 72.646 840.375 72.9296 840.025C73.2132 839.676 73.3551 839.218 73.3551 838.651V800.36C73.3551 799.815 73.2023 799.367 72.8969 799.018C72.6132 798.647 72.1987 798.407 71.6532 798.298L66.4169 797.284V793.88H87.5587ZM76.1283 955.851C72.6156 955.851 69.5174 955.262 66.8337 954.084C64.1719 952.884 61.9574 951.182 60.1901 948.978C58.4228 946.775 57.0919 944.091 56.1974 940.927C55.3028 937.742 54.8556 934.185 54.8556 930.258C54.8556 925.895 55.401 922.022 56.4919 918.64C57.6046 915.236 59.1537 912.389 61.1392 910.098C63.1465 907.807 65.5683 906.062 68.4046 904.862C71.241 903.662 74.3937 903.062 77.8628 903.062C81.3756 903.062 84.4628 903.662 87.1246 904.862C89.8083 906.04 92.0228 907.731 93.7683 909.935C95.5356 912.116 96.8665 914.789 97.761 917.953C98.6556 921.116 99.1028 924.662 99.1028 928.589C99.1028 932.909 98.5574 936.771 97.4665 940.175C96.3974 943.556 94.8592 946.404 92.8519 948.716C90.8665 951.029 88.4556 952.796 85.6192 954.018C82.7828 955.24 79.6192 955.851 76.1283 955.851ZM77.0446 906.924C72.5937 906.924 69.1246 908.789 66.6374 912.52C64.1501 916.229 62.9065 921.891 62.9065 929.505C62.9065 936.836 64.0628 942.411 66.3756 946.229C68.7101 950.047 72.201 951.956 76.8483 951.956C81.2992 951.956 84.7683 950.08 87.2556 946.327C89.7428 942.575 90.9865 936.88 90.9865 929.244C90.9865 921.935 89.8301 916.393 87.5174 912.618C85.2046 908.822 81.7137 906.924 77.0446 906.924Z" fill="white"/>
</svg>
